PathFileType	4	(X/Y/Z)	C:\Users\u0145647\OneDrive - KU Leuven\KU Leuven\c3d2osim\CP4\T0\Data\Processed\ViconC3D_CP4_2\CP4_T0_10_gapFilled.trc
DataRate	CameraRate	NumFrames	NumMarkers	Units	OrigDataRate	OrigDataStartFrame	OrigNumFrames
100.000000	100.000000	10	47	mm	100.000000	317	633
Frame#	Time	C7			T10			CLAV			STRN			LSHO			RSHO			RBAK			LASI			RASI			LPSI			RPSI			LLAT			RLAT			LF1			LF2			LF3			LTHI			LKNE			LMEK			RF1			RF2			RF3			RTHI			RKNE			RMEK			LT1			LT2			LT3			LTIB			LANK			LMM			RT1			RT2			RT3			RTIB			RANK			RMM			LHEE			LSTL			LLCA			LTOE			LCM5			RHEE			RSTL			RLCA			RTOE			RCM5
		X1	Y1	Z1	X2	Y2	Z2	X3	Y3	Z3	X4	Y4	Z4	X5	Y5	Z5	X6	Y6	Z6	X7	Y7	Z7	X8	Y8	Z8	X9	Y9	Z9	X10	Y10	Z10	X11	Y11	Z11	X12	Y12	Z12	X13	Y13	Z13	X14	Y14	Z14	X15	Y15	Z15	X16	Y16	Z16	X17	Y17	Z17	X18	Y18	Z18	X19	Y19	Z19	X20	Y20	Z20	X21	Y21	Z21	X22	Y22	Z22	X23	Y23	Z23	X24	Y24	Z24	X25	Y25	Z25	X26	Y26	Z26	X27	Y27	Z27	X28	Y28	Z28	X29	Y29	Z29	X30	Y30	Z30	X31	Y31	Z31	X32	Y32	Z32	X33	Y33	Z33	X34	Y34	Z34	X35	Y35	Z35	X36	Y36	Z36	X37	Y37	Z37	X38	Y38	Z38	X39	Y39	Z39	X40	Y40	Z40	X41	Y41	Z41	X42	Y42	Z42	X43	Y43	Z43	X44	Y44	Z44	X45	Y45	Z45	X46	Y46	Z46	X47	Y47	Z47

317	3.16	834.02	1452.8	-160.3	811.99	1198.5	-182.69	951.62	1379.5	-138.92	985.71	1228.7	-134.9	944.83	1419.1	-357.12	847.62	1408.1	40.081	779.73	1370	-47.075	993.24	945.19	-234.05	933.35	930.5	-44.556	810.39	979.92	-224.92	787.84	976.66	-153.78	954.14	1015.2	-296.61	861.14	1004.4	-16.971	987.2	679.88	-299.96	974.14	724.8	-310.52	954.33	675.23	-309.25	969.58	598.13	-339.39	966.32	473.42	-254.37	NaN	NaN	NaN	928.9	657.07	-4.4686	939.78	694.07	-3.337	880.07	678.32	-13.606	950.29	599.6	37.261	1008	487.86	-27.774	NaN	NaN	NaN	895.48	303.35	-273.89	940.95	338.9	-254.62	894.81	348.86	-276.11	949.78	225.64	-275.24	844.79	71.929	-233.8	851.84	89.342	-146.71	916.34	372.69	-6.4605	960.77	394.3	-20.688	918.15	425.5	-11.61	888.9	308.3	38.45	773.48	168.96	-14.188	795.03	174.83	-98.95	790.17	60.29	-190.74	848.02	58.381	-148.09	847.05	44.885	-226.04	966.42	46.419	-180.88	957.93	33.609	-228.24	728.6	190.85	-56.749	773.85	146.42	-94.923	765.59	144.53	-16.877	864.44	73.644	-48.022	836.2	70.402	-0.23288
318	3.17	844.45	1452.4	-160.43	821.34	1197.9	-182.53	961.85	1378.5	-138.99	995.48	1227.7	-135.31	955.51	1418.5	-357.02	857.59	1407.4	39.867	789.84	1369.3	-47.464	1002.3	945.08	-235.54	944.71	930.09	-45.43	819.38	978.75	-224.49	797.74	975.03	-153.09	961.93	1014.9	-297.51	872.02	1003.3	-17.125	993.66	679.08	-300.24	980.83	724.02	-310.58	960.65	674.61	-309.39	975.11	597.88	-340.02	970.12	472.44	-255.67	NaN	NaN	NaN	944.81	657.41	-4.3355	954.75	694.86	-3.103	895.57	677.77	-13.843	967.44	600.26	36.982	1027.8	490.32	-28.184	NaN	NaN	NaN	897.23	302.87	-274.52	943.18	338.14	-255.73	897.01	348.4	-276.73	950.79	224.76	-276.24	844.75	71.88	-233.97	852.6	89.389	-147.02	940.27	372.3	-7.0949	983.73	395.03	-21.746	940.65	425.07	-12.158	915.01	306.8	37.618	803.77	164.16	-15.339	825.12	170.64	-100.03	790.18	60.442	-190.79	848.7	58.462	-148.3	846.87	44.819	-226.23	966.33	46.371	-181.23	957.84	33.388	-228.6	758.35	184.34	-58.027	805.27	141.5	-95.946	796.58	139.54	-18.191	898.26	72.476	-48.715	870.12	68.446	-0.82854
319	3.18	854.99	1451.5	-160.68	830.66	1197	-182.27	971.99	1377.2	-139.13	1005.2	1226.3	-135.75	966.13	1417.6	-356.89	867.31	1406.4	39.753	799.98	1368.4	-47.813	1011.2	944.7	-237.09	956.15	929.46	-46.377	828.37	977.25	-223.8	807.56	973.2	-152.3	970.57	1014.4	-298.33	883.1	1002.1	-17.249	1000.3	678.04	-300.34	988.04	723.1	-310.64	967.39	673.97	-309.65	981.63	597.12	-340.19	974.57	471.3	-256.98	NaN	NaN	NaN	960.82	657.74	-4.242	969.89	695.46	-2.9679	911.3	677.18	-13.553	984.34	600.41	36.787	1047.9	492.63	-28.927	NaN	NaN	NaN	899.39	302.47	-275.28	945.9	337	-256.65	899.6	347.87	-277.31	951.91	223.49	-277.26	844.82	71.832	-234.18	852.76	89.478	-147.3	964.07	371.46	-8.0399	1006.9	395.89	-22.448	962.84	424.2	-12.37	941.52	304.82	36.516	834.53	159.14	-16.602	855.81	166.42	-101.37	790.25	60.645	-190.83	848.38	58.578	-148.5	846.78	44.754	-226.45	966.36	46.378	-181.72	957.77	33.149	-229.03	788.52	177.62	-59.282	836.67	136.56	-97.394	828.48	134.15	-19.362	932.3	71.054	-49.743	904.54	66.309	-1.8394
320	3.19	865.57	1450.4	-160.75	839.94	1196	-182.19	982.17	1375.6	-139.19	1014.9	1224.7	-136.33	976.74	1416.2	-356.74	877.31	1405.1	39.594	810.13	1367.3	-48.141	1020.4	944.22	-238.54	967.73	928.71	-47.22	837.71	975.41	-223.03	817.57	971.05	-151.28	978.98	1013.7	-299.18	894.2	1000.7	-17.201	1007.4	676.74	-300.69	995.65	721.88	-310.86	974.54	673.08	-310.06	988.86	596.31	-340.46	979.69	469.73	-257.73	NaN	NaN	NaN	976.87	657.82	-4.3287	984.95	695.84	-2.8898	927	676.43	-13.48	1001.6	600.79	36.319	1067.3	494.49	-29.67	NaN	NaN	NaN	902.27	301.87	-275.9	949.28	335.9	-257.49	902.92	347.35	-277.8	954.06	222.93	-278.04	845	71.801	-234.31	853.17	89.586	-147.43	987.88	370.55	-9	1029.7	396.31	-23.661	984.87	422.69	-13.156	967.93	302.86	35.256	865.6	153.68	-18.187	886.28	161.81	-102.83	790.45	60.998	-190.9	848.63	58.675	-148.63	846.89	44.782	-226.57	966.43	46.214	-181.95	957.78	32.904	-229.44	818.81	170.56	-60.615	868.53	131.3	-98.801	860.81	128.36	-21.128	966.96	69.549	-51.221	939.44	64.217	-3.1122
321	3.2	876.13	1449.1	-160.85	849.07	1194.8	-182.08	992.42	1373.8	-139.28	1024.6	1222.9	-136.84	987.35	1414.8	-356.62	887.31	1403.4	39.519	820.37	1365.8	-48.436	1029.7	943.51	-240.03	979.49	927.79	-48.004	846.87	973.18	-222	827.66	968.69	-150.11	986.76	1012.4	-300.05	905.48	999.11	-17.243	1014.7	675.37	-300.34	1003.4	720.45	-310.94	982.18	671.73	-310.43	996.75	594.92	-340.81	985.53	468.11	-258.17	NaN	NaN	NaN	993.2	657.85	-4.185	1000.5	696.02	-2.8663	942.83	675.48	-13.254	1019.1	600.96	35.673	1086.4	496.08	-30.738	NaN	NaN	NaN	905.66	301.06	-276.08	952.99	334.46	-257.82	906.99	346.56	-278.08	955.92	220.83	-278.39	845.29	71.79	-234.32	853.66	89.585	-147.43	1011.5	369.27	-10.081	1052.2	396.46	-25.207	1006.7	421.6	-14.102	994.32	300.54	33.767	897.11	148.17	-19.518	917.28	157.16	-104.54	790.73	61.398	-190.93	848.84	58.742	-148.65	847.03	44.768	-226.56	966.69	46.087	-182.22	957.86	32.753	-229.81	849.58	163.26	-62.028	900.78	125.84	-100.47	892.9	122.81	-22.481	1001.4	68.239	-52.866	974.47	62.008	-4.771
322	3.21	886.84	1447.5	-160.93	858.26	1193.4	-182	1002.7	1371.6	-139.48	1034.2	1220.8	-137.47	998.14	1413.1	-356.53	897.4	1401.6	39.518	830.63	1364.1	-48.703	1039.5	942.6	-241.77	991.37	926.76	-48.654	856.19	970.66	-220.79	837.89	965.92	-148.87	994.68	1011.1	-300.97	916.74	997.45	-17.173	1022.4	673.64	-300.2	1011.5	718.77	-311.05	990.05	670.07	-310.85	1005.2	593.07	-340.78	991.81	466.17	-258.35	NaN	NaN	NaN	1009.1	657.79	-4.5083	1016	695.98	-3.0273	958.41	674.72	-13.001	1036.1	601.36	35.259	1105	497.42	-31.907	NaN	NaN	NaN	909.39	300.13	-276.03	957.54	332.84	-257.96	911.74	345.5	-278.01	958.7	219.53	-278.49	845.56	71.903	-234.11	854.22	89.456	-147.24	1035	367.54	-11.509	1074.4	396.36	-26.709	1028.1	419.69	-15.208	1020.8	298.1	32.227	928.93	142.52	-21.141	948.55	152.28	-106.25	791.09	61.882	-190.73	849.04	58.712	-148.45	847.27	44.88	-226.45	967.1	45.973	-182.42	957.94	32.621	-230.1	880.66	155.64	-63.343	932.96	120.19	-102.16	925.95	117.01	-24.078	1036.3	67.081	-55.166	1009.7	59.673	-6.7343
323	3.22	897.53	1445.9	-161.01	867.46	1191.8	-181.94	1013	1369.3	-139.54	1043.8	1218.3	-138.18	1008.9	1411.1	-356.34	907.69	1399.6	39.46	840.92	1362.2	-48.816	1048.9	941.4	-243.26	1003.4	925.65	-49.402	865.7	967.71	-219.68	848.17	963.04	-147.5	1002.7	1009.5	-301.77	928.23	995.56	-17.094	1030.4	671.77	-300.04	1019.6	716.86	-310.81	998.14	668.05	-310.79	1013.5	591.38	-340.7	998.5	464.07	-258.12	NaN	NaN	NaN	1025.1	657.6	-5.0074	1031.9	695.63	-3.3801	974.51	673.57	-12.719	1053	601.08	34.333	1122.9	498.29	-33.212	NaN	NaN	NaN	913.7	299	-275.95	962.15	331.25	-257.7	916.6	344.41	-278	961.87	218.1	-277.8	845.75	72.092	-233.79	854.63	89.317	-146.64	1058.1	365.59	-12.908	1096.7	396.06	-28.167	1049.2	417.54	-16.247	1047.1	295.36	30.521	960.84	136.47	-22.954	979.68	147.26	-107.86	791.53	62.377	-190.21	849.48	58.467	-148.1	847.53	44.995	-226.13	967.46	45.806	-182.58	957.93	32.407	-230.29	912.01	147.77	-64.748	965.63	114.65	-104.14	959.35	110.75	-25.987	1071.1	65.391	-57.389	1045.4	57.697	-8.8388
324	3.23	908.29	1444	-161.04	876.61	1190	-181.9	1023.3	1366.7	-139.82	1053.3	1215.5	-138.88	1019.8	1409	-356.27	918.15	1397.1	39.244	851.35	1360.1	-48.939	1058.2	939.96	-244.35	1015.6	924.5	-50.097	875.36	964.56	-218.56	858.75	959.87	-146.17	1010.8	1007.4	-302.78	939.59	993.45	-17.075	1038.6	669.69	-299.27	1028	714.68	-310.47	1006.6	665.94	-310.4	1022.2	589.08	-340.05	1005.5	462.02	-257.8	NaN	NaN	NaN	1040.6	657.06	-5.4071	1047.3	694.98	-3.6189	989.94	671.92	-12.76	1069.7	600.86	33.378	1140.3	498.73	-34.921	NaN	NaN	NaN	917.91	297.93	-275.25	967.02	329.12	-257.05	921.68	343.11	-277.51	964.91	215.75	-277.03	846.18	72.301	-233.21	855.06	89.211	-146.12	1080.9	363.31	-14.562	1118	395.51	-29.932	1069.9	414.81	-17.598	1073.2	292.56	28.773	993.24	130.36	-24.81	1011.2	142.05	-110.41	791.87	62.999	-189.66	849.71	58.358	-147.61	847.85	45.212	-225.72	967.9	45.614	-182.62	958.01	32.386	-230.42	943.66	139.64	-66.174	998.44	108.84	-106.32	992.82	104.64	-27.774	1106.6	64.963	-60.064	1081.3	55.702	-11.475
325	3.24	919.08	1441.8	-161.1	885.86	1188.1	-181.85	1033.7	1363.9	-140.06	1062.9	1212.7	-139.69	1030.6	1406.7	-356.1	928.69	1394.5	39.286	861.75	1357.9	-49.011	1068.2	938.24	-245.99	1027.8	923.3	-50.727	885.08	961.33	-217.46	869.35	956.67	-144.95	1019	1005	-303.52	951.06	991.34	-17.018	1047.1	667.36	-298.14	1036.6	712.15	-309.41	1015.2	663.81	-310.02	1031.5	586.39	-338.62	1012.3	459.1	-256.78	NaN	NaN	NaN	1056.1	656.52	-5.8247	1062.7	694.53	-3.7417	1005.3	670.89	-12.432	1086.3	600.6	32.469	1156.9	498.75	-36.582	NaN	NaN	NaN	922.63	296.51	-274.69	972.06	327.12	-256.23	927.1	341.73	-276.8	968.26	213.57	-275.87	846.82	72.749	-232.56	855.7	88.964	-145.48	1103.3	360.62	-16.404	1138.5	394.38	-31.914	1090.3	411.74	-18.925	1099	289.45	26.924	1026.4	124.18	-26.78	1042.4	136.98	-112.36	792.29	63.583	-189.08	849.9	58.298	-147.07	848.19	45.486	-225.27	968.29	45.352	-182.54	958.08	32.266	-230.4	975.83	131.48	-67.742	1031.4	103.13	-108.32	1026.7	98.689	-29.491	1141.9	64.072	-63.181	1117.3	53.773	-13.985
326	3.25	929.89	1439.6	-161.02	895.11	1186.2	-181.83	1044.3	1361	-140.25	1072.5	1209.6	-140.6	1041.5	1404.3	-356.03	939.4	1391.8	39.251	872.29	1355.5	-49.063	1078	936.38	-247.33	1040.1	922.13	-51.466	895.2	957.61	-216.48	880.11	953.39	-143.69	1027.3	1002.5	-304.2	962.78	989.23	-16.723	1055.7	664.71	-296.54	1045.6	709.18	-308.28	1024.1	661.12	-309.25	1041	584.12	-337.25	1019.8	456.46	-255.74	NaN	NaN	NaN	1071.2	655.43	-6.2664	1077.1	693.58	-4.0922	1020	669.13	-12.015	1102.6	599.77	31.121	1173.4	498.41	-38.54	NaN	NaN	NaN	927.33	295.31	-273.66	977.33	325.12	-255.12	932.68	340.37	-275.97	971.62	211.45	-274.65	847.76	73.194	-231.98	855.82	88.966	-145.19	1125.4	357.92	-18.164	1159.1	393.39	-34.13	1110.1	408.32	-20.448	1124.8	286.27	24.757	1059.4	118.25	-28.666	1073.9	131.54	-114.48	792.79	64.33	-188.38	850.15	58.233	-146.51	848.55	45.919	-224.62	968.74	45.097	-182.41	958.16	32.195	-230.22	1008.1	123.04	-69.119	1064.3	97.448	-110.35	1060.9	92.421	-31.765	1177.2	63.405	-66.408	1153.7	52.372	-16.946
